<svg xmlns="http://www.w3.org/2000/svg" viewBox="0 0 64 64" width="64" height="64">
  <!-- Background Shield -->
  <path d="M32 4 C44 4 54 8 54 18 C54 36 42 52 32 58 C22 52 10 36 10 18 C10 8 20 4 32 4 Z" fill="#1B365D" stroke="#D4AF37" stroke-width="2.5" />
  
  <!-- Open Book Symbol -->
  <!-- Left Page -->
  <path d="M32 42 C27 38 18 38 16 39 L16 20 C18 19 27 19 32 23 Z" fill="#FAF8F5" stroke="#D4AF37" stroke-width="1.5" stroke-linejoin="round" />
  <!-- Right Page -->
  <path d="M32 42 C37 38 46 38 48 39 L48 20 C46 19 37 19 32 23 Z" fill="#FAF8F5" stroke="#D4AF37" stroke-width="1.5" stroke-linejoin="round" />
  
  <!-- Book Spine Center Line -->
  <line x1="32" y1="23" x2="32" y2="42" stroke="#1B365D" stroke-width="1.5" />
  
  <!-- Little Gold Spire / Star above the book -->
  <polygon points="32,10 34,14 38,14 35,17 36,21 32,19 28,21 29,17 26,14 30,14" fill="#D4AF37" />
  
  <!-- Text Lines in Book (Subtle) -->
  <line x1="20" y1="25" x2="28" y2="25" stroke="#505050" stroke-width="1" />
  <line x1="20" y1="29" x2="28" y2="29" stroke="#505050" stroke-width="1" />
  <line x1="20" y1="33" x2="26" y2="33" stroke="#505050" stroke-width="1" />
  
  <line x1="36" y1="25" x2="44" y2="25" stroke="#505050" stroke-width="1" />
  <line x1="36" y1="29" x2="44" y2="29" stroke="#505050" stroke-width="1" />
  <line x1="36" y1="33" x2="42" y2="33" stroke="#505050" stroke-width="1" />
</svg>
